# xmcd CD database file
#
# Track frame offsets:
#	150
#	19597
#	37240
#	57194
#	73629
#	86432
#	101741
#	118274
#	141836
#	157341
#	177311
#	195632
#	209716
#
# Disc length: 3050 seconds
#
# Revision: 0
# Processed by: cddbd v1.5.2PL0 Copyright (c) Steve Scherf et al.
# Submitted via: cdripper 1,0,39,0213
#
DISCID=c60be80d
DTITLE=Susan Wong - Just a Little Bossa Nova
DYEAR=1900
DGENRE=Jazz
TTITLE0=01. The Look of Love
TTITLE1=02. Girl from Ipanema
TTITLE2=03. Emotion
TTITLE3=05. Somewhere Beyond the Sea
TTITLE4=04. And  I Love Her
TTITLE5=06. All the Way
TTITLE6=07. The Shadow of Your Smile
TTITLE7=08. Just the Way You Are
TTITLE8=09. Imagine
TTITLE9=10. Desafinado
TTITLE10=11. Get Here
TTITLE11=12. If
TTITLE12=13. Kissing a Fool
EXTD=
EXTT0=
EXTT1=
EXTT2=
EXTT3=
EXTT4=
EXTT5=
EXTT6=
EXTT7=
EXTT8=
EXTT9=
EXTT10=
EXTT11=
EXTT12=
PLAYORDER=
